<?xml version="1.0" encoding="UTF-8"?><svg id="Layer_1" xmlns="http://www.w3.org/2000/svg" width="436.27" height="474.29" viewBox="0 0 436.27 474.29"><defs><style>.cls-1{fill:#dbdbdb;}.cls-2{fill:#4f4f4f;}.cls-3{fill:#fff;}.cls-4{fill:#171817;}.cls-5{fill:#c40000;}.cls-6{fill:#feffff;}.cls-7{fill:#171718;}</style></defs><circle class="cls-2" cx="207.64" cy="171.52" r="136.03"/><circle class="cls-3" cx="206.54" cy="170.42" r="126.73"/><circle class="cls-5" cx="207.64" cy="171.52" r="117.22"/><circle class="cls-3" cx="207.64" cy="171.52" r="110.88"/><path class="cls-4" d="M0,389.57c0-14.7,11.26-25.33,26.38-25.33,8.02,0,14.91,2.88,19.49,8.23l-5.91,5.56c-3.59-3.87-8.02-5.77-13.16-5.77-10.2,0-17.59,7.18-17.59,17.31s7.39,17.31,17.59,17.31c5.14,0,9.57-1.9,13.16-5.84l5.91,5.63c-4.57,5.35-11.47,8.23-19.56,8.23-15.06,0-26.31-10.62-26.31-25.33Z"/><path class="cls-4" d="M91.6,406.53v7.67h-36.94v-49.25h35.95v7.67h-26.8v12.8h23.78v7.53h-23.78v13.58h27.79Z"/><path class="cls-4" d="M134.03,414.19l-10.06-14.42c-.63.07-1.27.07-1.9.07h-11.12v14.35h-9.15v-49.25h20.26c12.95,0,20.97,6.61,20.97,17.52,0,7.46-3.8,12.94-10.48,15.55l11.33,16.18h-9.85ZM121.64,372.69h-10.69v19.63h10.69c8.02,0,12.17-3.66,12.17-9.85s-4.15-9.78-12.17-9.78Z"/><path class="cls-4" d="M198.26,364.95l-21.46,49.25h-9.01l-21.53-49.25h9.92l16.39,37.99,16.53-37.99h9.15Z"/><path class="cls-4" d="M233.86,402.8h-24.62l-4.85,11.4h-9.43l22.16-49.25h9.01l22.23,49.25h-9.57l-4.92-11.4ZM230.84,395.62l-9.29-21.53-9.22,21.53h18.5Z"/><path class="cls-4" d="M298.38,364.95v49.25h-7.53l-27.16-33.35v33.35h-9.08v-49.25h7.53l27.16,33.35v-33.35h9.08Z"/><path class="cls-4" d="M321.6,372.69h-16.32v-7.74h41.79v7.74h-16.32v41.51h-9.15v-41.51Z"/><path class="cls-4" d="M390.89,406.53v7.67h-36.94v-49.25h35.95v7.67h-26.8v12.8h23.78v7.53h-23.78v13.58h27.79Z"/><path class="cls-4" d="M396.95,408.99l3.17-7.11c3.94,3.17,10.2,5.42,16.25,5.42,7.67,0,10.9-2.74,10.9-6.4,0-10.62-29.27-3.66-29.27-21.95,0-7.95,6.33-14.7,19.84-14.7,5.91,0,12.1,1.55,16.39,4.36l-2.88,7.11c-4.43-2.6-9.29-3.87-13.58-3.87-7.6,0-10.69,2.96-10.69,6.68,0,10.48,29.2,3.66,29.2,21.74,0,7.88-6.4,14.63-19.91,14.63-7.67,0-15.34-2.39-19.42-5.91Z"/><path class="cls-7" d="M82.58,466.12c0,5.07-3.7,7.95-11.09,7.95h-13.41v-30.09h12.55c6.45,0,10.36,2.71,10.36,7.7,0,3.57-2.02,5.89-5.03,6.88,4.26.82,6.62,3.4,6.62,7.57ZM60.27,445.87v11.99h10.27c5.2,0,8.21-2.02,8.21-6.02s-3.01-5.98-8.21-5.98h-10.27ZM80.39,465.95c0-4.3-3.14-6.19-8.9-6.19h-11.22v12.42h11.22c5.76,0,8.9-1.89,8.9-6.23Z"/><path class="cls-7" d="M90.41,443.98h2.19v30.09h-2.19v-30.09Z"/><path class="cls-7" d="M123.86,472.1v1.98h-20.76v-30.09h20.12v1.98h-17.93v11.86h16.04v1.93h-16.04v12.34h18.57Z"/><path class="cls-7" d="M156.36,443.98v30.09h-1.81l-20.51-26.14v26.14h-2.19v-30.09h1.85l20.46,26.14v-26.14h2.19Z"/><path class="cls-7" d="M187.62,472.1v1.98h-20.76v-30.09h20.12v1.98h-17.93v11.86h16.04v1.93h-16.04v12.34h18.57Z"/><path class="cls-7" d="M192.57,470.21l.99-1.63c2.06,2.15,5.89,3.78,9.93,3.78,6.02,0,8.68-2.62,8.68-5.89,0-9.03-18.79-3.61-18.79-14.7,0-4.26,3.27-8,10.66-8,3.31,0,6.75,1.03,9.07,2.71l-.82,1.76c-2.49-1.72-5.55-2.54-8.25-2.54-5.85,0-8.47,2.71-8.47,6.02,0,9.03,18.79,3.7,18.79,14.62,0,4.26-3.4,7.95-10.83,7.95-4.47,0-8.77-1.68-10.96-4.08Z"/><path class="cls-7" d="M253.74,474.07l-7.18-10.06c-.95.13-1.89.21-2.92.21h-8.6v9.84h-2.19v-30.09h10.79c7.57,0,12.12,3.78,12.12,10.15,0,4.77-2.58,8.08-7.05,9.41l7.52,10.53h-2.49ZM243.64,462.3c6.45,0,9.89-3.01,9.89-8.17s-3.44-8.17-9.89-8.17h-8.6v16.34h8.6Z"/><path class="cls-7" d="M282.42,465.61h-17.45l-3.83,8.47h-2.36l13.84-30.09h2.19l13.84,30.09h-2.36l-3.87-8.47ZM281.61,463.76l-7.91-17.37-7.87,17.37h15.78Z"/><path class="cls-7" d="M298.76,436.46h3.1l-6.75,5.07h-2.32l5.98-5.07ZM294.12,443.98h2.19v30.09h-2.19v-30.09Z"/><path class="cls-7" d="M303.92,459.03c0-8.77,6.66-15.26,15.61-15.26,4.26,0,8.08,1.38,10.7,4.17l-1.38,1.42c-2.58-2.54-5.72-3.57-9.24-3.57-7.7,0-13.5,5.68-13.5,13.24s5.8,13.24,13.5,13.24c3.53,0,6.66-1.07,9.24-3.61l1.38,1.42c-2.62,2.79-6.45,4.21-10.7,4.21-8.94,0-15.61-6.49-15.61-15.26Z"/><path class="cls-7" d="M358.35,472.1v1.98h-20.76v-30.09h20.12v1.98h-17.93v11.86h16.04v1.93h-16.04v12.34h18.57Z"/><path class="cls-7" d="M363.3,470.21l.99-1.63c2.06,2.15,5.89,3.78,9.93,3.78,6.02,0,8.68-2.62,8.68-5.89,0-9.03-18.79-3.61-18.79-14.7,0-4.26,3.27-8,10.66-8,3.31,0,6.75,1.03,9.07,2.71l-.82,1.76c-2.49-1.72-5.55-2.54-8.25-2.54-5.85,0-8.47,2.71-8.47,6.02,0,9.03,18.79,3.7,18.79,14.62,0,4.26-3.4,7.95-10.83,7.95-4.47,0-8.77-1.68-10.96-4.08Z"/><polygon class="cls-2" points="145.28 110.51 207.26 163.09 269.23 110.51 216.65 172.49 269.23 234.46 207.26 181.88 145.28 234.46 197.86 172.49 145.28 110.51"/><polygon class="cls-3" points="181.39 146.09 206.54 171.3 55.48 171.3 181.39 146.09"/><path class="cls-3" d="M368.72,171.52h-153.75l23.53,23.14,130.22-23.14Z"/><polygon class="cls-1" points="206.19 343.04 234.85 199.22 380.62 171.41 231.45 144.31 206.19 0 178.49 141.88 34.67 171.52 178 202.62 206.19 343.04"/><polygon class="cls-3" points="208.89 169.41 231.45 144.31 380.62 171.41 208.89 169.41"/><polygon class="cls-5" points="206.54 175.43 231.97 198.9 206.54 326.74 206.54 175.43"/><polygon class="cls-3" points="212.21 172.49 236.39 194.22 370.2 171.5 212.21 172.49"/><polygon class="cls-3" points="205.05 173.4 178 202.62 34.67 171.52 205.05 173.4"/><polygon class="cls-3" points="208.89 169.41 231.45 144.31 206.19 0 208.89 169.41"/><polygon class="cls-2" points="207.26 172.49 232.11 146.95 370.2 171.5 207.26 172.49"/><path class="cls-3" d="M205.82,167.23c0-1.01.35-158.37.35-158.37l-24.65,133.22,24.3,25.15Z"/><polygon class="cls-5" points="205.82 171.14 231.45 144.31 206.19 0 205.82 171.14"/><polygon class="cls-6" points="47.7 171.14 177.22 145.09 203.28 171.29 47.7 171.14"/><polygon class="cls-5" points="34.67 171.29 180.75 199.65 205.05 173.4 34.67 171.29"/></svg>